<svg xmlns="http://www.w3.org/2000/svg" width="146" height="122" fill="none" viewBox="0 0 146 122"><path stroke="url(#paint0_radial)" stroke-width="3.545" d="M99.8828 77.012C130.006 67.5578 149.517 46.8766 130.006 44.1114C111.923 41.5487 -3.4625 41.2567 12.4829 29.5208C25.2392 20.132 55.9881 7.63482 69.7681 2.55981"/><path fill="#FFD66D" d="M17.2278 115.734L108.835 62.0476L105.784 100.09L17.2278 115.734Z"/><path fill="#C68317" d="M17.2281 115.734L108.331 68.1054L107.919 73.3637L17.2281 115.734Z"/><path fill="#FFBF1C" fill-rule="evenodd" d="M88.3722 38.2595L9.69097 119.739L145.2 104.33L115.17 69.4161L17.228 115.733L108.837 62.053L88.3722 38.2595Z" clip-rule="evenodd"/><g style="mix-blend-mode:soft-light" filter="url(#filter0_i)"><path fill="#784100" d="M115.17 69.4172L145.26 104.327L88.658 81.9613L115.17 69.4172Z"/></g><g style="mix-blend-mode:soft-light" filter="url(#filter1_i)"><path fill="#784100" d="M88.3724 38.2599L108.803 62.0504L84.6132 76.2284L88.3724 38.2599Z"/></g><defs><filter id="filter0_i" width="58.255" height="35.737" x="88.658" y="68.591" color-interpolation-filters="sRGB" filterUnits="userSpaceOnUse"><feFlood flood-opacity="0" result="BackgroundImageFix"/><feBlend in="SourceGraphic" in2="BackgroundImageFix" mode="normal" result="shape"/><feColorMatrix in="SourceAlpha" result="hardAlpha" type="matrix" values="0 0 0 0 0 0 0 0 0 0 0 0 0 0 0 0 0 0 127 0"/><feOffset dx="1.653" dy="-.826"/><feGaussianBlur stdDeviation=".826"/><feComposite in2="hardAlpha" k2="-1" k3="1" operator="arithmetic"/><feColorMatrix type="matrix" values="0 0 0 0 0 0 0 0 0 0 0 0 0 0 0 0 0 0 0.85 0"/><feBlend in2="shape" mode="normal" result="effect1_innerShadow"/></filter><filter id="filter1_i" width="25.843" height="38.795" x="84.613" y="37.434" color-interpolation-filters="sRGB" filterUnits="userSpaceOnUse"><feFlood flood-opacity="0" result="BackgroundImageFix"/><feBlend in="SourceGraphic" in2="BackgroundImageFix" mode="normal" result="shape"/><feColorMatrix in="SourceAlpha" result="hardAlpha" type="matrix" values="0 0 0 0 0 0 0 0 0 0 0 0 0 0 0 0 0 0 127 0"/><feOffset dx="1.653" dy="-.826"/><feGaussianBlur stdDeviation=".826"/><feComposite in2="hardAlpha" k2="-1" k3="1" operator="arithmetic"/><feColorMatrix type="matrix" values="0 0 0 0 0 0 0 0 0 0 0 0 0 0 0 0 0 0 0.85 0"/><feBlend in2="shape" mode="normal" result="effect1_innerShadow"/></filter><radialGradient id="paint0_radial" cx="0" cy="0" r="1" gradientTransform="translate(58.5199 87.0571) rotate(-90.9022) scale(75.0524 132.074)" gradientUnits="userSpaceOnUse"><stop stop-opacity=".26"/><stop offset="1" stop-opacity="0"/></radialGradient></defs></svg>