<svg xmlns="http://www.w3.org/2000/svg" width="45" height="34" fill="none" viewBox="0 0 45 34"><path fill="#3B57C4" d="M0 7.15625H44.7368V33.9984H0V7.15625Z" opacity=".1"/><path fill="#3B57C4" d="M6.04083 9.68359H39.2853V26.3058H6.04083V9.68359Z"/><path fill="#4976F2" d="M35.7136 27.4766H40.5216L41.2085 30.224H35.7136V27.4766Z"/><path fill="#4976F2" d="M35.0267 13.0522H39.8348L40.5216 10.3047H34.3398L35.0267 13.0522Z"/><path fill="#548AFF" d="M39.1479 27.4766H35.7136V13.0523H39.1479V27.4766Z"/><path fill="#4976F2" d="M35.7136 15.1094H39.1479V16.4831H35.7136V15.1094Z"/><path fill="#4976F2" d="M9.61255 27.4766H4.80447L4.1176 30.224H9.61255V27.4766Z"/><path fill="#639AFF" d="M33.653 10.303V4.80808L22.6631 0L11.6732 4.80808V10.303H33.653Z"/><path fill="#639AFF" d="M9.61255 24.7266H35.7136V27.474H9.61255V24.7266Z"/><path fill="#548AFF" d="M8.23881 27.4766H37.0873V30.224H8.23881V27.4766Z"/><path fill="#548AFF" d="M2.74386 6.18359H11.6732V10.3048H2.74386V6.18359Z"/><path fill="#4976F2" d="M17.1681 13.0522H12.36L11.6732 10.3047H17.855L17.1681 13.0522Z"/><path fill="#548AFF" d="M13.0469 13.0508H16.4812V21.9801H13.0469V13.0508Z"/><path fill="#4976F2" d="M17.1681 21.9805H12.36L11.6732 24.7279H17.855L17.1681 21.9805Z"/><path fill="#4976F2" d="M10.2994 13.0522H5.49133L4.80447 10.3047H10.9863L10.2994 13.0522Z"/><path fill="#548AFF" d="M6.1782 13.0508H9.61255V27.475H6.1782V13.0508Z"/><path fill="#4976F2" d="M13.0469 15.1094H16.4812V16.4831H13.0469V15.1094Z"/><path fill="#4976F2" d="M6.1782 15.1094H9.61255V16.4831H6.1782V15.1094Z"/><path fill="#548AFF" d="M33.653 6.18359H42.5822V10.3048H33.653V6.18359Z"/><path fill="#4976F2" d="M19.9156 17.1719H25.4105V24.7274H19.9156V17.1719Z"/><path fill="#486BE0" d="M22.6631 13.7383C24.1804 13.7383 25.4105 14.9684 25.4105 16.4858V17.1726H19.9156V16.4858C19.9156 14.9684 21.1457 13.7383 22.6631 13.7383Z"/><path fill="#486BE0" d="M17.855 5.49609H20.6024V6.86983H17.855V5.49609Z"/><path fill="#486BE0" d="M24.7237 5.49609H27.4711V6.86983H24.7237V5.49609Z"/><path fill="#486BE0" d="M15.1075 5.49609H16.4812V6.86983H15.1075V5.49609Z"/><path fill="#486BE0" d="M28.8449 5.49609H30.2186V6.86983H28.8449V5.49609Z"/><rect width="5.495" height="2.747" x="19.916" y="4.809" fill="#486BE0" rx="1.374"/><path fill="#4976F2" d="M32.9661 13.0522H28.158L27.4711 10.3047H33.653L32.9661 13.0522Z"/><path fill="#548AFF" d="M28.8449 13.0508H32.2792V21.9801H28.8449V13.0508Z"/><path fill="#4976F2" d="M32.9661 21.9805H28.158L27.4711 24.7279H33.653L32.9661 21.9805Z"/><path fill="#4976F2" d="M28.8449 15.1094H32.2792V16.4831H28.8449V15.1094Z"/></svg>